<?xml version="1.0" encoding="utf-8"?>
<!-- Generator: Adobe Illustrator 19.0.0, SVG Export Plug-In . SVG Version: 6.00 Build 0)  -->
<svg version="1.1" id="Capa_1" xmlns="http://www.w3.org/2000/svg" xmlns:xlink="http://www.w3.org/1999/xlink" x="0px" y="0px"
	 viewBox="-793 -603 2000 2000" style="enable-background:new -793 -603 2000 2000;" xml:space="preserve">
<style type="text/css">
	.st0{fill:#FFFFFF;}
</style>
<g id="Close">
	<path class="st0" d="M267.9,397l182.5-182.5c16.8-16.8,16.8-44,0-60.8c-16.8-16.8-44-16.8-60.8,0L207,336.2L24.5,153.6
		c-16.8-16.8-44-16.8-60.8,0c-16.8,16.8-16.8,44,0,60.8L146.2,397L-36.4,579.5c-16.8,16.8-16.8,44,0,60.8c16.8,16.8,44,16.8,60.8,0
		L207,457.8l182.5,182.5c16.8,16.8,44,16.8,60.8,0c16.8-16.8,16.8-44,0-60.8L267.9,397z"/>
</g>
</svg>
