<?xml version="1.0" encoding="utf-8"?>
<!-- Generator: Adobe Illustrator 19.0.0, SVG Export Plug-In . SVG Version: 6.00 Build 0)  -->
<svg version="1.1" id="Layer_1" xmlns="http://www.w3.org/2000/svg" xmlns:xlink="http://www.w3.org/1999/xlink" x="0px" y="0px"
	 viewBox="0 0 260 260" style="enable-background:new 0 0 260 260;" xml:space="preserve">
<style type="text/css">
  <!-- .st0{fill:#07c1e4;} -->
	.st0{fill:#FFFFFF;}
</style>
<g>
	<path class="st0" d="M134.7,184.8c-35.8-1.1-63.8-30.7-62.8-66.1c0.1-3.4,0.5-6.7,1.1-9.9c0.3-1.7,0.7-3.4,1.2-5
		c-13.1,11.4-20.8,28.7-19.1,47.5c0.8,9.2,3.8,17.6,8.4,24.9c0.2,0.3,0.4,0.6,0.6,1l-7.4,30.1l27.4-11.7c9.2,5,19.9,7.4,31.1,6.4
		c14.8-1.3,27.7-8.5,36.7-18.9c-0.9,0.2-1.8,0.4-2.8,0.6C144.4,184.5,139.6,184.9,134.7,184.8z"/>
	<path class="st0" d="M142.4,52.8C111.8,51.8,85.6,72,77.9,100c-0.4,1.6-0.8,3.3-1.2,5c-0.6,3.2-1,6.5-1.1,9.9
		c-1.1,35.4,27,65,62.8,66.1c4.9,0.2,9.8-0.3,14.4-1.2c0.9-0.2,1.9-0.4,2.8-0.6c4.4-1,8.6-2.5,12.6-4.4c0.4-0.2,0.8-0.4,1.2-0.6
		l33.6,12.7l-9.6-33.2c7-9.9,11.3-21.9,11.7-34.9C206.2,83.5,178.1,53.9,142.4,52.8z"/>
</g>
</svg>
