<?xml version="1.0" encoding="utf-8"?>
<!-- Generator: Adobe Illustrator 19.0.0, SVG Export Plug-In . SVG Version: 6.00 Build 0)  -->
<svg version="1.1"
	 id="Layer_1" xmlns:dc="http://purl.org/dc/elements/1.1/" xmlns:inkscape="http://www.inkscape.org/namespaces/inkscape" xmlns:cc="http://creativecommons.org/ns#" xmlns:svg="http://www.w3.org/2000/svg" xmlns:rdf="http://www.w3.org/1999/02/22-rdf-syntax-ns#" xmlns:sodipodi="http://sodipodi.sourceforge.net/DTD/sodipodi-0.dtd"
	 xmlns="http://www.w3.org/2000/svg" xmlns:xlink="http://www.w3.org/1999/xlink" x="0px" y="0px" viewBox="-247 342 84 84"
	 style="enable-background:new -247 342 84 84;" xml:space="preserve">
<style type="text/css">
	.st0{fill:#FFFFFF;}
</style>
<g transform="translate(0,-952.36218)">
	<path class="st0" d="M-211,1294.4c-2.2,0-4,1.8-4,4v5.5c-2.1,0.6-4.1,1.4-5.9,2.4l-3.9-3.9c-1.6-1.6-4.1-1.6-5.7,0l-8.5,8.5
		c-1.6,1.6-1.6,4.1,0,5.7l3.9,3.9c-1,1.9-1.8,3.9-2.4,5.9h-5.5c-2.2,0-4,1.8-4,4v12c0,2.2,1.8,4,4,4h5.5c0.6,2.1,1.4,4.1,2.4,5.9
		l-3.9,3.9c-1.6,1.6-1.6,4.1,0,5.7l8.5,8.5c1.6,1.6,4.1,1.6,5.7,0l3.9-3.9c1.9,1,3.9,1.8,5.9,2.4v5.5c0,2.2,1.8,4,4,4h12
		c2.2,0,4-1.8,4-4v-5.5c2.1-0.6,4-1.4,5.9-2.4l3.9,3.9c1.6,1.6,4.1,1.6,5.7,0l8.5-8.5c1.6-1.6,1.6-4.1,0-5.7l-3.9-3.9
		c1-1.9,1.8-3.8,2.5-5.9h5.5c2.2,0,4-1.8,4-4v-12c0-2.2-1.8-4-4-4h-5.5c-0.6-2.1-1.5-4-2.5-5.9l3.9-3.9c1.6-1.6,1.6-4.1,0-5.7
		l-8.5-8.5c-1.6-1.6-4.1-1.6-5.7,0l-3.9,3.9c-1.9-1-3.8-1.8-5.9-2.4v-5.5c0-2.2-1.8-4-4-4H-211z M-205,1318.4c9.9,0,18,8.1,18,18
		s-8.1,18-18,18c-9.9,0-18-8.1-18-18S-214.9,1318.4-205,1318.4z"/>
</g>
</svg>
